<?xml version="1.0" encoding="UTF-8"?>
<svg width="42px" height="42px" viewBox="0 0 42 42" version="1.1" xmlns="http://www.w3.org/2000/svg" xmlns:xlink="http://www.w3.org/1999/xlink">
    <!-- Generator: Sketch 52.5 (67469) - http://www.bohemiancoding.com/sketch -->
    <title>ico_stratis</title>
    <desc>Created with Sketch.</desc>
    <defs>
        <rect id="path-1" x="0" y="0" width="42" height="42" rx="8"></rect>
    </defs>
    <g id="News" stroke="none" stroke-width="1" fill="none" fill-rule="evenodd">
        <g id="ico_stratis">
            <g id="Mask" fill="#FFFFFF">
                <rect id="path-1" x="0" y="0" width="42" height="42" rx="8"></rect>
            </g>
            <g id="IMPL_alt_1_-Clipped">
                <g id="i-Clipped">
                    <mask id="mask-2" fill="white">
                        <use xlink:href="#path-1"></use>
                    </mask>
                    <g id="path-1"></g>
                    <path d="M15.2887729,13 C15.5208848,13 15.7055164,13.0808073 15.8426735,13.2424242 C15.9798305,13.4040412 16.0273072,13.5959585 15.985105,13.8181818 L15.4470302,16.1818182 C15.4048281,16.4040415 15.2782235,16.5959588 15.0672127,16.7575758 C14.8562019,16.9191927 14.6346439,17 14.4025321,17 L11.6805066,17 C11.4483947,17 11.2690382,16.9191927 11.1424317,16.7575758 C11.0158253,16.5959588 10.9736238,16.4040415 11.0158259,16.1818182 L11.5539007,13.8181818 C11.5961029,13.5959585 11.7174323,13.4040412 11.9178925,13.2424242 C12.1183527,13.0808073 12.3346356,13 12.5667474,13 L15.2887729,13 Z M13.3170159,20 C13.5399105,20 13.7172104,20.0761864 13.8489209,20.2285616 C13.9806314,20.3809367 14.0262228,20.5618795 13.9856965,20.7713953 L12.2704378,28.2286047 C12.2299115,28.4381205 12.1083344,28.6190633 11.9057029,28.7714384 C11.7030714,28.9238136 11.4903115,29 11.2674168,29 L8.6534835,29 C8.43058885,29 8.25835465,28.9238136 8.13677575,28.7714384 C8.01519685,28.6190633 7.97467116,28.4381205 8.01519746,28.2286047 L9.73045621,20.7713953 C9.77098251,20.5618795 9.88749387,20.3809367 10.0799938,20.2285616 C10.2724937,20.0761864 10.4801879,20 10.7030826,20 L13.3170159,20 Z M19.3170159,20 C19.5399105,20 19.7172104,20.0761864 19.8489209,20.2285616 C19.9806314,20.3809367 20.0262228,20.5618795 19.9856965,20.7713953 L18.2704378,28.2286047 C18.2299115,28.4381205 18.1083344,28.6190633 17.9057029,28.7714384 C17.7030714,28.9238136 17.4903115,29 17.2674168,29 L14.6534835,29 C14.4305888,29 14.2583547,28.9238136 14.1367758,28.7714384 C14.0151968,28.6190633 13.9746712,28.4381205 14.0151975,28.2286047 L15.7304562,20.7713953 C15.7709825,20.5618795 15.8874939,20.3809367 16.0799938,20.2285616 C16.2724937,20.0761864 16.4801879,20 16.7030826,20 L19.3170159,20 Z M33.3170159,13 C33.5399105,13 33.7172104,13.0761864 33.8489209,13.2285616 C33.9806314,13.3809367 34.0262228,13.5618795 33.9856965,13.7713953 L32.2704378,21.2286047 C32.2299115,21.4381205 32.1083344,21.6190633 31.9057029,21.7714384 C31.7030714,21.9238136 31.4903115,22 31.2674168,22 L28.6534835,22 C28.4305888,22 28.2583547,21.9238136 28.1367758,21.7714384 C28.0151968,21.6190633 27.9746712,21.4381205 28.0151975,21.2286047 L29.7304562,13.7713953 C29.7709825,13.5618795 29.8874939,13.3809367 30.0799938,13.2285616 C30.2724937,13.0761864 30.4801879,13 30.7030826,13 L33.3170159,13 Z M24.0231587,28.1692308 C23.9832678,28.3948729 23.8685833,28.5897428 23.6791017,28.7538462 C23.48962,28.9179495 23.2851824,29 23.0657826,29 L20.6722753,29 C20.4528755,29 20.2783556,28.9179495 20.1487102,28.7538462 C20.0190649,28.5897428 19.9741884,28.3948729 20.0140792,28.1692308 L22.9759614,13.8307692 C23.0158523,13.6051271 23.1355231,13.4102572 23.3349774,13.2461538 C23.5344317,13.0820505 23.7438557,13 23.9632554,13 L26.3567628,13 C26.5761626,13 26.7456962,13.0820505 26.8653688,13.2461538 C26.9850414,13.4102572 27.0249317,13.6051271 26.9850408,13.8307692 L24.0231587,28.1692308 Z" id="i" fill="#4087F3" fill-rule="nonzero" mask="url(#mask-2)"></path>
                </g>
            </g>
        </g>
    </g>
</svg>