<?xml version="1.0" encoding="UTF-8"?>
<svg width="42px" height="42px" viewBox="0 0 42 42" version="1.1" xmlns="http://www.w3.org/2000/svg" xmlns:xlink="http://www.w3.org/1999/xlink">
    <!-- Generator: Sketch 52.5 (67469) - http://www.bohemiancoding.com/sketch -->
    <title>ico_bitcoin</title>
    <desc>Created with Sketch.</desc>
    <defs>
        <rect id="path-1" x="0" y="0" width="42" height="42" rx="8"></rect>
    </defs>
    <g id="News" stroke="none" stroke-width="1" fill="none" fill-rule="evenodd">
        <g id="ico_bitcoin">
            <g id="Mask" fill="#FFFFFF">
                <rect id="path-1" x="0" y="0" width="42" height="42" rx="8"></rect>
            </g>
            <g id="BTC_alt_1_-Clipped">
                <mask id="mask-2" fill="white">
                    <use xlink:href="#path-1"></use>
                </mask>
                <g id="path-1"></g>
                <path d="M28.274994,20.615015 C27.5661248,20.0811296 26.556326,19.8675949 26.556326,19.8675949 C26.556326,19.8675949 27.4108533,19.3721632 27.7600442,18.8772171 C28.1096236,18.3820768 28.2843161,17.6149443 28.3135449,17.2169094 C28.3425794,16.8186802 28.4106502,15.1489533 27.1095353,14.1879014 C26.1031352,13.4442684 24.9498146,13.149068 23.4010809,13.0530308 L23.4010809,9.68328001 L21.3234143,9.68328001 L21.3234143,13.0132176 C20.8598332,13.0132176 20.3180823,13.0132176 19.740888,13.0132176 L19.740888,9.68328001 L17.6634155,9.68328001 L17.6634155,13.0132176 C15.542537,13.0132176 13.576056,13.0132176 13.576056,13.0132176 L13.576056,15.170802 C13.576056,15.170802 14.4498102,15.170802 14.7774437,15.170802 C15.1049802,15.170802 15.6875153,15.2072165 15.9350369,15.4842582 C16.1826556,15.7608143 16.2263531,15.9065694 16.2263531,16.4451159 C16.2263531,16.9838565 16.2264502,24.8384191 16.2264502,25.0423404 C16.2264502,25.2461646 16.187608,25.4984444 16.0127212,25.6636206 C15.8381258,25.8287969 15.6634332,25.8673477 15.245783,25.8673477 C14.8282298,25.8673477 14.0032226,25.8673477 14.0032226,25.8673477 L13.576056,28.3627617 C13.576056,28.3627617 15.6073063,28.3627617 17.6634155,28.3627617 L17.6634155,31.68328 L19.7409851,31.68328 L19.7409851,28.3627617 C20.3793558,28.3627617 20.935187,28.3627617 21.3235114,28.3627617 L21.3235114,31.68328 L23.4011781,31.68328 L23.4011781,28.3079942 C23.9382679,28.2766292 24.4390403,28.235942 24.7311333,28.1976825 C25.3234761,28.1201924 26.6631419,27.9648238 27.9158012,27.0909725 C29.1680722,26.2170242 29.4493865,24.8480326 29.4786152,23.4695246 C29.5081352,22.0909196 28.9831835,21.1489974 28.274994,20.615015 Z M19.740888,15.3627793 C19.740888,15.3627793 20.4010103,15.3046132 21.0515192,15.3141295 C21.7022224,15.323743 22.2747557,15.3432611 23.1293801,15.6054457 C23.9836161,15.8677273 24.4880785,16.5085257 24.507888,17.2658505 C24.527212,18.0231753 24.1967624,18.527832 23.6145186,18.8482797 C23.0320805,19.1686304 22.2266885,19.34342 21.4690724,19.3722603 C20.7119417,19.4014891 19.740888,19.3722603 19.740888,19.3722603 L19.740888,15.3627793 Z M24.3912645,25.2946202 C23.9155452,25.5569018 22.9640096,25.7898576 22.041897,25.8576372 C21.119493,25.925708 19.740888,25.8965764 19.740888,25.8965764 L19.740888,21.4401193 C19.740888,21.4401193 21.0613269,21.3723398 22.0905468,21.4401193 C23.1195725,21.5083844 23.9836161,21.7702776 24.3717463,21.9647797 C24.7600707,22.1587962 25.4399054,22.5858657 25.4399054,23.6054721 C25.4399054,24.6246902 24.8666924,25.0325328 24.3912645,25.2946202 Z" id="BTC_alt_1_" fill="#4087F3" fill-rule="nonzero" mask="url(#mask-2)" transform="translate(21.527928, 20.683280) rotate(15.000000) translate(-21.527928, -20.683280) "></path>
            </g>
        </g>
    </g>
</svg>