<?xml version="1.0" encoding="UTF-8"?>
<svg width="695px" height="256px" viewBox="0 0 695 256" version="1.1" xmlns="http://www.w3.org/2000/svg" xmlns:xlink="http://www.w3.org/1999/xlink">
    <!-- Generator: Sketch 52.5 (67469) - http://www.bohemiancoding.com/sketch -->
    <title>Artboard</title>
    <desc>Created with Sketch.</desc>
    <g id="Artboard" stroke="none" stroke-width="1" fill="none" fill-rule="evenodd">
        <g id="Group-2" transform="translate(6.000000, 12.000000)">
            <ellipse id="Oval" stroke="#FFFFFF" stroke-width="5" fill="#4087F3" cx="140.955466" cy="116" rx="112.544534" ry="113.5"></ellipse>
            <path d="M50.7854251,46.6430609 C69.7104831,37.6662886 90.1814159,32.5967691 113.295465,43.3836835 C136.808416,54.3567582 141.232456,81.8117973 148.728745,102.46556 C152.764247,113.584169 165.564673,126.213114 174.658532,130.630795 C187.155538,136.70168 197.295052,137.487839 207.838829,136.192265 C216.895665,135.0794 225.396406,131.148248 231.925266,126.287941 C237.935626,121.813623 242.002245,117.521044 246.672065,111.059475 C242.493805,129.578989 233.041888,140.745041 222.094067,149.580777 C216.312083,154.247284 205.69298,159.894162 194.07515,161.856806 C183.695357,163.610304 172.692292,162.174554 161.46834,158.756398 C148.389569,154.773372 135.953834,143.741149 127.960337,130.472453 C121.565604,119.857604 118.449056,107.992827 116.900238,95.8185932 C115.425558,84.2271103 111.493079,74.7089865 104.857019,66.3760019 C100.3395,60.7032953 94.2105675,55.4148805 86.6693014,51.5354622 C75.1176426,45.5929963 61.599744,44.3559126 50.7854251,46.6430609 Z" id="Path-9" fill="#FFFFFF"></path>
            <path d="M89.6926362,61.20143 C93.4030321,63.905481 97.3024428,67.5683859 100.576464,71.9499054 C103.707864,76.1405596 106.018378,80.7995269 107.502536,85.1152659 C111.291736,96.1337637 108.903338,101.671243 111.212932,114.356746 C112.212027,119.844295 113.43917,125.941613 117.149566,133.56212 C119.04674,137.458586 122.17339,143.189741 126.301875,148.334879 C130.24767,153.252338 135.14636,157.602922 139.164581,160.639969 C145.654559,165.545216 154.285798,170.387941 164.395273,172.737261 C169.866639,174.008741 176.098607,174.706516 181.463094,174.721881 C186.209316,174.735475 190.271944,174.164374 192.594282,173.720553 C197.541476,172.775095 211.281075,170.61364 224.751046,159.614422 C237.400075,149.285562 244.787184,137.338775 248.744939,125.319155 C245.776623,152.697914 233.408636,178.368792 208.920024,198.343416 C184.431411,218.31804 158.359821,214.945171 147.57549,212.589627 C136.604916,210.193405 127.07784,200.546103 125.345644,189.458414 C117.839462,200.546103 128.485695,210.193405 127.606358,209.965009 C94.4172205,201.344562 67.0008943,161.09157 80.8859523,119.487206 C84.6182641,108.303929 86.875664,99.6472453 86.4769598,91.759774 C86.1715586,85.7180955 84.0766292,79.5036976 81.2824056,75.020643 C78.3165786,70.2622679 73.6857227,65.4228548 66.6881818,62.0455748 C58.4862756,58.0870223 48.5687693,56.0223157 41.4574899,55.4797764 C47.3941233,53.2424884 49.6607015,52.7676772 54.814915,52.1365861 C57.762862,51.7756342 60.7682534,51.6922187 63.7198651,51.8907633 C66.0963627,52.050622 68.4452079,52.4089214 70.6459374,52.8324959 C73.9210824,53.4628633 77.370599,54.5572783 80.5403264,55.9714221 C84.3131388,57.6546265 87.6762808,59.7319566 89.6926362,61.20143 Z" id="Path-9-Copy" fill="#FFFFFF"></path>
            <path d="M44.6264007,56.9642857 C32.36254,62.4077034 16.7898094,75.0646777 0,92.1785714 C2.10886494,83.8359373 5.92104388,73.9641518 11.4365368,62.5632151 C28.4696768,52.8934247 42.9678892,46.5390197 54.9311741,43.5 L44.6264007,56.9642857 Z" id="Path-10" stroke="#FFFFFF" stroke-width="5" fill="#4087F3" stroke-linecap="round" stroke-linejoin="round"></path>
        </g>
        <text id="lite" font-family="Rubik-Regular, Rubik" font-size="160" font-weight="normal" letter-spacing="42.3529472" fill="#6B7C93">
            <tspan x="327" y="182">lite</tspan>
        </text>
    </g>
</svg>